<svg xmlns="http://www.w3.org/2000/svg" viewBox="0 0 24 24" fill="#7360f2">
  <path d="M11.5 0C5.645 0 0 4.838 0 10.8c0 3.53 1.874 6.678 4.797 8.695v3.994l3.672-2.015c.96.242 1.98.374 3.031.374 5.855 0 11.5-4.488 11.5-10.248C23 5.388 17.915 0 11.5 0zm1.147 14.967c-.214.073-.627.05-.627.05s-3.428-1.12-5.454-3.59c-1.56-1.894-1.912-4.04-1.345-5.572.274-.736.762-1.147 1.388-1.147.116 0 .235.014.353.044.57.148.943.48 1.2 1.04l.726 1.59c.257.574.274.954-.044 1.32l-.36.434a.607.607 0 00-.044.616c.466 1.04 1.51 1.994 2.543 2.396.268.105.474.044.63-.11l.36-.433c.304-.384.67-.434 1.068-.22l1.67.85c.607.313.986.698 1.044 1.288.044.36-.087.762-.508 1.044zm3.17-2.875c-.073 0-.147-.022-.214-.07a4.987 4.987 0 00-2.83-1.25.288.288 0 01-.256-.317.288.288 0 01.317-.256 5.555 5.555 0 013.147 1.39.288.288 0 01.044.404.289.289 0 01-.208.099zm1.217-2.186a.288.288 0 01-.28-.22 5.837 5.837 0 00-4.527-4.395.288.288 0 01-.22-.344.288.288 0 01.344-.22 6.413 6.413 0 014.97 4.826.288.288 0 01-.287.353zm1.28-2.45a.288.288 0 01-.272-.19 7.703 7.703 0 00-6.2-4.97.289.289 0 01-.242-.328.289.289 0 01.328-.242 8.28 8.28 0 016.66 5.34.288.288 0 01-.274.39z"/>
</svg>
